PathFileType	4	(X/Y/Z)	C:/Users/beibeiliu/ov580/test_trc/User3\sequence.15_training_dense_left.trc
DataRate	CameraRate	NumFrames	NumMarkers	Units	OrigDataRate	OrigDataStartFrame	OrigNumFrames
120	120	21	19	mm	120	205	234
Frame#	Time	ThumbCMC			ThumbMCP			ThumbIP			ThumbTip			IndexMCP			IndexPIP			IndexTip			MiddleMCP			MiddlePIP			MiddleTip			RingMCP			RingPIP			RingTip			PinkyMCP			PinkyPIP			PinkyTip			BackHand1			BackHand2			BackHand3	
		X0	Y0	Z0	X1	Y1	Z1	X2	Y2	Z2	X3	Y3	Z3	X4	Y4	Z4	X5	Y5	Z5	X6	Y6	Z6	X7	Y7	Z7	X8	Y8	Z8	X9	Y9	Z9	X10	Y10	Z10	X11	Y11	Z11	X12	Y12	Z12	X13	Y13	Z13	X14	Y14	Z14	X15	Y15	Z15	X16	Y16	Z16	X17	Y17	Z17	X18	Y18	Z18	
204	1.7	-175.561	9.41433	22.3102	-148.201	24.3305	7.56634	-126.737	28.7014	-6.63606	-105.795	23.6026	-26.6477	-154.035	12.2994	-49.8408	-123.854	11.3154	-54.5906	-98.27	7.93108	-37.0878	-173.052	-14.2866	-62.3524	-160.153	-7.0948	-86.2413	-138.647	-4.52446	-110.697	-173.543	-32.4634	-55.1891	-163.368	-31.6628	-83.3436	-150.868	-33.0851	-102.95	-169.081	-56.91	-39.125	-161.091	-61.9442	-61.7195	-151.025	-67.8955	-81.7144	-196.063	-38.4497	-11.259	-207.291	-44.4357	15.8763	-203.711	-10.1799	5.05543	
205	1.70833	-181.434	13.077	18.5669	-156.777	24.6441	6.14375	-133.213	31.3106	-15.7241	-113.419	29.2511	-29.5283	-162.988	6.07148	-51.3706	-129.889	15.3767	-56.7806	-104.865	11.277	-42.1898	-177.019	-16.3947	-64.4979	-162.892	-14.3871	-90.14	-141.257	-8.43419	-115.16	-175.698	-41.4127	-59.44	-166.316	-40.5656	-84.5708	-153.978	-36.0727	-103.939	-168.826	-59.1755	-43.489	-159.02	-66.244	-60.9973	-150.559	-68.5048	-80.1747	-199.034	-43.4117	-12.9931	-207.417	-52.9651	15.4565	-207.23	-16.2257	2.19923	
206	1.71667	-186.888	9.67027	12.8304	-162.771	23.5139	-0.56367	-140.674	30.5754	-19.3917	-118.491	30.9328	-36.5985	-165.154	-0.537373	-55.9398	-132.77	13.0173	-59.2895	-109.396	15.1934	-43.4539	-177.101	-22.3223	-68.236	-162.038	-21.5635	-92.9383	-142.444	-12.2434	-115.404	-174.774	-47.2304	-56.681	-165.982	-45.7805	-83.6562	-147.905	-46.2799	-106.589	-165.016	-63.2264	-37.5129	-154.386	-68.8201	-60.1053	-141.924	-71.881	-82.0891	-198.585	-47.7618	-14.0077	-208.463	-56.3748	16.5836	-209.144	-18.0001	-2.87428	
207	1.725	-193.87	6.42383	10.0173	-169.263	23.3101	-4.74437	-147.546	33.3535	-25.1595	-126.696	35.3459	-37.7996	-166.17	-2.84094	-59.6184	-138.933	10.9092	-62.0047	-116.109	16.2884	-45.5317	-174.597	-30.6242	-69.92	-159.942	-26.8264	-93.0381	-137.105	-19.8861	-116.344	-171.53	-48.084	-58.4206	-158.652	-54.4978	-80.2787	-142.164	-49.758	-101.409	-158.517	-69.184	-37.742	-145.892	-74.1253	-56.0239	-127.767	-75.5895	-73.9542	-196.545	-52.4423	-12.8474	-207.889	-58.5854	12.831	-212.417	-25.1162	-2.17556	
208	1.73333	-199.821	3.81326	7.76095	-175.663	18.5169	-10.2846	-154.276	33.8501	-27.8817	-130.8	35.1143	-41.7019	-166.37	-10.0568	-60.5601	-140.138	10.0861	-63.7782	-119.693	17.6358	-46.1388	-171.65	-37.5344	-67.4535	-153.249	-30.2999	-91.5532	-126.305	-23.5598	-113.021	-164.311	-57.2003	-54.0938	-148.463	-53.6558	-79.9749	-127.49	-52.2837	-97.7135	-154.103	-66.5049	-36.1207	-134.669	-70.1683	-52.7455	-119.642	-71.32	-63.7884	-194.532	-57.3569	-10.2251	-205.92	-62.6307	15.6215	-212.708	-32.6751	-5.40803	
209	1.74167	-204.8	-0.493582	3.94433	-183.532	17.9739	-10.1338	-158.592	30.7416	-31.2272	-138.153	33.2878	-40.1879	-168.618	-14.4861	-59.1321	-140.446	4.097	-62.084	-120.605	17.115	-42.9106	-164.645	-43.5005	-65.0975	-143.956	-35.1462	-88.5478	-120.136	-20.7109	-105.999	-158.183	-56.9144	-50.3448	-139.658	-56.0686	-71.3337	-114.014	-50.472	-87.1887	-145.038	-68.5796	-28.5363	-124.614	-69.6664	-41.4654	-103.999	-64.1453	-54.9085	-191.705	-63.4223	-10.086	-205.056	-63.5863	11.6843	-214.83	-39.3616	-6.60458	
210	1.75	-207.525	-5.02583	-1.69977	-186.668	15.1422	-12.8754	-163.381	26.7456	-29.5942	-139.634	32.5571	-40.0083	-163.747	-14.0325	-60.5124	-138.36	6.85595	-60.342	-122.215	18.2803	-41.6136	-156.497	-43.6983	-62.9616	-138.254	-34.5039	-79.7784	-106.518	-20.6674	-95.4597	-146.933	-59.5359	-44.261	-129.454	-54.5255	-61.3652	-103.932	-47.3245	-73.7747	-139.246	-69.0467	-20.4117	-116.821	-65.4776	-32.1755	-97.5295	-57.8488	-43.01	-191.051	-65.9143	-7.63644	-203.981	-68.0205	19.1758	-211.839	-42.2801	-11.2139	
211	1.75833	-208.54	-10.0239	-0.421912	-187.084	11.3782	-16.0247	-164.38	27.4993	-30.08	-142.778	29.5979	-33.8061	-159.196	-16.1637	-58.3835	-135.918	2.17937	-56.9479	-119.994	20.8124	-35.3434	-149.472	-45.8208	-56.2409	-129.592	-34.3107	-72.2695	-98.275	-18.4851	-84.4773	-138.188	-59.8225	-40.5183	-117.593	-54.3585	-54.7171	-92.4922	-43.9522	-64.1217	-132.127	-66.4765	-17.0727	-113.537	-61.5025	-22.7793	-93.0814	-54.3572	-31.6157	-182.954	-70.8025	-6.64698	-199.404	-71.9405	16.9498	-212.294	-45.9798	-12.7048	
212	1.76667	-211.602	-9.64764	-3.79139	-193.159	14.1452	-14.7864	-164.896	25.442	-27.9742	-141.66	27.7224	-29.1427	-154.851	-18.5178	-53.8115	-133.478	2.51283	-53.8406	-121.481	22.9348	-33.3101	-147.621	-41.8363	-52.3681	-120.093	-33.0708	-64.7781	-95.2341	-12.8982	-76.2563	-136.255	-57.9992	-34.431	-111.31	-50.4438	-47.8604	-90.1378	-41.7843	-53.5967	-132.86	-63.9522	-8.88554	-109.205	-59.434	-15.8429	-87.4235	-51.9523	-18.1345	-179.954	-71.6147	-2.36321	-200.066	-75.2761	19.6248	-204.821	-50.7901	-9.42361	
213	1.775	-209.619	-16.3169	0.0111911	-192.105	13.0055	-14.1105	-164.796	22.6262	-25.0885	-136.713	27.0896	-27.6692	-148.203	-18.9226	-50.3031	-130.225	4.31711	-49.3476	-118.898	20.4561	-29.4182	-136.586	-41.2573	-50.0732	-117.341	-30.4496	-60.3274	-89.9171	-12.9749	-66.7551	-130.473	-57.0534	-28.3259	-106.932	-48.9741	-40.5383	-86.1512	-37.708	-46.934	-126.595	-61.3398	-5.25257	-104.41	-54.7221	-11.2099	-81.0803	-48.1022	-13.4291	-175.142	-72.5929	-0.806352	-195.509	-75.5168	20.5985	-205.809	-50.7434	-8.72018	
214	1.78333	-208.096	-15.7766	-0.722072	-187.567	10.45	-14.2009	-161.735	23.5717	-22.3299	-138.768	26.5953	-20.0253	-145.513	-17.3732	-47.7799	-125.607	4.01363	-43.6266	-118.862	26.8439	-22.7211	-135.477	-40.7795	-44.3279	-110.887	-24.1426	-58.5886	-85.7345	-6.16012	-64.25	-125.374	-54.636	-22.6512	-103.495	-47.8372	-32.2664	-77.7965	-34.0722	-38.5181	-122.485	-59.7204	0.290436	-98.512	-51.523	-3.40613	-76.06	-43.5326	-5.32509	-172.021	-71.501	-2.18937	-193.707	-74.1082	19.9673	-200.722	-54.416	-8.78164	
215	1.79167	-203.418	-15.1123	-0.617188	-186.649	10.953	-12.9987	-160.157	24.94	-20.7196	-137.753	27.7658	-18.1393	-145.729	-20.4073	-43.4113	-123.511	2.96973	-42.9171	-116.366	24.4056	-23.7366	-128.898	-40.8765	-42.4175	-110.128	-27.4309	-53.8456	-80.7064	-7.39706	-62.764	-121.082	-52.2306	-24.607	-99.4667	-47.2486	-28.42	-78.0437	-33.9024	-37.0487	-118.047	-59.2446	2.85683	-99.638	-51.615	-0.800284	-75.9115	-42.718	-4.17236	-169.079	-69.9295	1.93165	-194.966	-73.9385	20.0865	-197.386	-52.6219	-10.5184	
216	1.8	-205.524	-15.5052	1.30205	-182.531	9.94061	-14.9155	-159.94	24.2352	-23.2809	-133.087	24.5213	-22.5089	-144.417	-21.842	-46.1139	-120.667	3.35582	-43.8964	-114.443	24.2939	-27.8171	-133.793	-42.2558	-43.9329	-107.589	-29.8272	-58.0553	-79.5287	-13.6756	-62.5726	-125.011	-54.1712	-21.5713	-98.7176	-48.0849	-29.8728	-75.7312	-35.5953	-38.8375	-120.032	-58.7593	0.0384046	-100.577	-52.4851	-1.65923	-77.6906	-43.8026	-7.12175	-171.531	-69.1609	-0.507879	-190.254	-73.6192	22.3409	-197.134	-52.2355	-7.91549	
217	1.80833	-202.826	-12.62	-5.84569	-180.998	8.36175	-19.6269	-158.929	20.3995	-27.8121	-132.596	19.8109	-28.7013	-144.285	-26.1736	-50.4639	-122.523	-7.08046	-51.6856	-114.525	19.6886	-36.1497	-131.059	-48.5849	-48.4842	-110.385	-38.2469	-61.3188	-82.6077	-23.5418	-70.1121	-123.231	-58.0788	-25.5996	-100.698	-54.7067	-32.3118	-76.1338	-41.2423	-44.6879	-122.638	-61.2338	0.5578	-99.7364	-57.1618	-2.07256	-77.2998	-46.6802	-10.3416	-172.622	-70.8532	-0.161412	-192.468	-71.2914	24.3006	-197.745	-53.1653	-7.71854	
218	1.81667	-201.211	-14.9045	-8.2064	-181.588	4.26579	-23.5354	-155.552	12.6322	-37.4139	-129.242	13.2606	-38.9677	-146.938	-36.7925	-53.174	-122.844	-18.5867	-58.2087	-112.503	9.34	-45.2518	-134.32	-59.6289	-49.4546	-113.239	-51.7618	-62.6322	-83.8899	-37.244	-76.3362	-128.42	-66.7034	-25.4295	-103.522	-62.5621	-39.8678	-80.9792	-54.07	-46.1158	-125.102	-68.5619	0.232539	-102.616	-62.347	-11.2899	-79.8698	-56.7545	-17.965	-175.27	-73.1934	1.35543	-193.493	-73.4282	24.3599	-201.903	-56.0126	-6.67782	
219	1.825	-201.421	-18.39	-9.3616	-181.435	-1.34439	-29.6021	-153.299	2.20809	-47.4613	-131.008	1.367	-46.8009	-151.665	-49.3015	-55.9985	-124.051	-34.372	-63.4931	-111.968	-3.63114	-51.5014	-141.812	-69.906	-48.6383	-117.939	-67.9596	-64.3523	-89.6892	-57.3478	-79.5193	-130.832	-77.4269	-29.2166	-112.102	-75.6255	-41.5667	-84.1728	-69.7146	-51.808	-130.623	-75.034	-5.13425	-107.97	-75.7103	-10.9114	-88.2735	-69.3136	-22.0791	-177.416	-76.1623	3.52942	-198.412	-73.0239	24.3814	-201.982	-58.3412	-7.34069	
220	1.83333	-204.667	-21.8579	-11.7561	-183.031	-10.5674	-34.1366	-158.737	-6.49987	-52.8921	-132.668	-14.8548	-55.2871	-157.55	-62.8626	-56.232	-129.841	-47.9966	-68.7088	-116.786	-22.8137	-62.7979	-151.911	-81.2117	-49.1726	-128.138	-82.5177	-69.231	-98.6849	-76.1467	-86.8814	-138.724	-90.0752	-28.9177	-117.96	-91.8572	-39.9235	-94.5788	-87.0844	-53.3143	-132.625	-88.3601	-5.29478	-115.431	-88.6521	-14.1215	-93.5994	-83.0727	-28.1745	-180.165	-82.8157	7.02182	-199.919	-72.2284	25.4652	-207.421	-61.4008	-7.51901	
221	1.84167	-208.344	-26.2812	-13.0551	-185.242	-19.7776	-38.693	-161.339	-21.4496	-58.9961	-137.517	-28.4903	-64.2046	-167.627	-75.6442	-55.5411	-141.633	-66.3147	-72.0676	-124.103	-39.0685	-68.7265	-161.575	-94.0226	-49.9555	-137.322	-98.5973	-68.0348	-110.217	-95.9771	-89.0957	-150.766	-98.7675	-29.3976	-128.178	-104.485	-42.7906	-102.497	-103.704	-57.321	-142.524	-95.844	-8.03067	-122.527	-99.8009	-16.127	-99.9427	-98.888	-28.5319	-187.205	-86.4753	7.07101	-205.381	-75.5901	35.1039	-213.684	-65.6644	-6.08173	
222	1.85	-210.925	-32.301	-12.6174	-189.944	-29.6317	-41.0578	-169.557	-34.7982	-63.7827	-145.331	-45.3073	-70.5234	-182.344	-85.6879	-56.3214	-157.335	-80.4524	-76.4845	-136.838	-56.8735	-78.5203	-174.72	-103.518	-46.2024	-152.354	-110.983	-70.5584	-126.012	-112.424	-91.3016	-161.468	-108.772	-29.9565	-141.37	-116.594	-43.2523	-116.907	-117.561	-58.0019	-152.529	-101.722	-3.98402	-129.389	-110.28	-18.765	-109.119	-111.716	-32.4242	-193.121	-91.9297	11.5808	-207.666	-75.1084	34.5001	-218.393	-68.313	2.74256	
223	1.85833	-216.098	-35.174	-13.2338	-197.703	-33.6946	-38.1403	-180.092	-44.4971	-60.6681	-159.221	-54.4104	-75.4802	-194.29	-94.8107	-55.4141	-169.998	-94.7067	-75.7389	-147.104	-72.3213	-81.4934	-184.149	-113.641	-44.0864	-170.381	-121.471	-68.9913	-146.124	-125.299	-95.1417	-174.623	-115.47	-28.3098	-153.735	-126.246	-46.5557	-134.725	-127.682	-62.2142	-160.376	-111.954	-9.31707	-143.287	-118.359	-23.0126	-122.279	-122.961	-36.4617	-203.433	-94.2406	12.1911	-209.34	-80.8088	38.3093	-222.714	-70.438	4.97923	
224	1.86667	-218.118	-38.6261	-11.9629	-202.39	-43.8727	-40.0608	-188.995	-47.4278	-66.7113	-170.954	-61.9038	-79.5013	-207.414	-100.675	-55.0716	-183.661	-102.645	-78.0494	-162.17	-81.6071	-86.5826	-198.264	-120.24	-45.2095	-184	-131.894	-69.5101	-166.757	-134.984	-97.2865	-186.287	-120.093	-25.4693	-168.732	-136.092	-46.8888	-152.411	-138.587	-66.4816	-169.483	-120.118	-7.83902	-153.786	-128.549	-21.878	-137.043	-134.519	-41.2033	-208.204	-96.7613	16.9367	-214.947	-79.3448	40.6012	-231.194	-71.2524	4.36566	
